<svg width="21" height="17" viewBox="0 0 21 17" fill="none" xmlns="http://www.w3.org/2000/svg">
  <path d="M12.75 3.75H18V5.25H12.75V3.75Z" fill="white" fill-opacity="0.64"/>
  <path d="M12.75 7.5H18V9H12.75V7.5Z" fill="white" fill-opacity="0.64"/>
  <path d="M12.75 11.25H18V12.75H12.75V11.25Z" fill="white" fill-opacity="0.64"/>
  <path d="M3 3.75H8.25V5.25H3V3.75Z" fill="white" fill-opacity="0.64"/>
  <path d="M3 7.5H8.25V9H3V7.5Z" fill="white" fill-opacity="0.64"/>
  <path d="M3 11.25H8.25V12.75H3V11.25Z" fill="white" fill-opacity="0.64"/>
  <path d="M19.5 0H1.5C1.1023 0.000397108 0.720997 0.15856 0.439778 0.439779C0.15856 0.720997 0.000397108 1.1023 0 1.5V15C0.000397108 15.3977 0.15856 15.779 0.439778 16.0602C0.720997 16.3414 1.1023 16.4996 1.5 16.5H19.5C19.8977 16.4996 20.279 16.3414 20.5602 16.0602C20.8414 15.779 20.9996 15.3977 21 15V1.5C20.9996 1.1023 20.8414 0.720997 20.5602 0.439779C20.279 0.15856 19.8977 0.000397108 19.5 0ZM1.5 1.5H9.75V15H1.5V1.5ZM11.25 15V1.5H19.5V15H11.25Z" fill="white" fill-opacity="0.64"/>
</svg>
